<?xml version="1.0" encoding="UTF-8" standalone="no" ?>
<!DOCTYPE svg PUBLIC "-//W3C//DTD SVG 1.1//EN" "http://www.w3.org/Graphics/SVG/1.1/DTD/svg11.dtd">
<svg xmlns="http://www.w3.org/2000/svg" xmlns:xlink="http://www.w3.org/1999/xlink" version="1.1" width="1080" height="1080" viewBox="0 0 1080 1080" xml:space="preserve">
<desc>Created with Fabric.js 5.2.4</desc>
<defs>
</defs>
<g transform="matrix(1 0 0 1 540 540)" id="b7a0983a-b764-4d50-934d-1d3dfa558dc2"  >
<rect style="stroke: none; stroke-width: 1; stroke-dasharray: none; stroke-linecap: butt; stroke-dashoffset: 0; stroke-linejoin: miter; stroke-miterlimit: 4; fill: rgb(255,255,255); fill-rule: nonzero; opacity: 1; visibility: hidden;" vector-effect="non-scaling-stroke"  x="-540" y="-540" rx="0" ry="0" width="1080" height="1080" />
</g>
<g transform="matrix(1 0 0 1 540 540)" id="0a60295d-9692-4d51-8cc0-8f925eb2de55"  >
</g>
<g transform="matrix(14.65 0 0 14.65 540 511.59)" id="9ca9255f-bd27-4e30-9294-b1bb6d4baafe"  >
<circle style="stroke: rgb(0,0,0); stroke-width: 0; stroke-dasharray: none; stroke-linecap: butt; stroke-dashoffset: 0; stroke-linejoin: miter; stroke-miterlimit: 4; fill: rgb(0,0,0); fill-rule: nonzero; opacity: 1;" vector-effect="non-scaling-stroke"  cx="0" cy="0" r="35" />
</g>
<g transform="matrix(1 0 0 1 540.5 540.5)" style="" id="4fc6283a-b893-46bb-b4bc-650d28299ba4"  >
		<text xml:space="preserve" font-family="Raleway" font-size="105" font-style="normal" font-weight="900" style="stroke: none; stroke-width: 1; stroke-dasharray: none; stroke-linecap: butt; stroke-dashoffset: 0; stroke-linejoin: miter; stroke-miterlimit: 4; fill: rgb(0,0,0); fill-rule: nonzero; opacity: 1; white-space: pre;" ><tspan x="-218.82" y="32.98" >Heading</tspan></text>
</g>
<g transform="matrix(1 0 0 1 540.5 540.5)" style="" id="86e95c22-5fe1-40d7-ae59-80f0964a48f7"  >
		<text xml:space="preserve" font-family="Lato" font-size="40" font-style="normal" font-weight="400" style="stroke: none; stroke-width: 1; stroke-dasharray: none; stroke-linecap: butt; stroke-dashoffset: 0; stroke-linejoin: miter; stroke-miterlimit: 4; fill: rgb(0,0,0); fill-rule: nonzero; opacity: 1; white-space: pre;" ><tspan x="-83.9" y="12.57" >Body text</tspan></text>
</g>
<g transform="matrix(0.55 0 0 -1.13 540 510.26)" id="49a689e6-e53c-4b54-baa2-d1abbfaf4213"  >
<path style="stroke: rgb(0,0,0); stroke-width: 0; stroke-dasharray: none; stroke-linecap: butt; stroke-dashoffset: 0; stroke-linejoin: miter; stroke-miterlimit: 4; fill: rgb(255,255,255); fill-rule: nonzero; opacity: 1;" vector-effect="non-scaling-stroke"  transform=" translate(-747.62, -400)" d="M 137 672 C 124 658 120 634 120 582 C 120 514 118 508 86 473 C 68 452 50 425 46 413 C 38 386 58 344 94 313 C 118 292 120 283 120 217 C 120 115 126 110 262 110 C 377 110 400 120 400 171 C 400 195 400 195 496 192 C 584 188 593 190 616 211 L 640 233 L 663 212 C 697 180 803 180 837 212 L 860 233 L 884 211 C 907 190 916 188 1004 192 L 1100 195 L 1100 169 C 1100 121 1126 110 1236 110 C 1290 110 1340 114 1347 118 C 1367 131 1380 178 1380 239 C 1380 291 1383 299 1415 330 C 1463 376 1463 416 1415 469 C 1383 504 1380 513 1380 569 C 1380 629 1369 667 1346 682 C 1340 686 1289 690 1233 690 C 1136 690 1130 689 1112 665 C 1099 648 1082 640 1063 640 C 1047 640 973 622 900 600 C 827 578 759 560 750 560 C 741 560 673 578 600 600 C 527 622 453 640 437 640 C 418 640 401 648 388 665 C 369 689 364 690 261 690 C 169 690 151 687 137 672 z M 370 625 C 370 590 370 590 324 590 L 279 590 L 281 519 L 283 449 L 241 423 L 198 398 L 239 373 L 280 349 L 280 279 L 280 210 L 325 210 C 370 210 370 210 370 175 L 370 140 L 260 140 L 150 140 L 150 229 L 150 317 L 112 344 C 79 366 74 375 78 400 C 81 418 95 439 116 455 L 150 481 L 150 571 L 150 660 L 260 660 L 370 660 L 370 625 z M 1342 572 L 1338 484 L 1379 456 C 1435 417 1435 384 1379 339 L 1338 307 L 1342 223 L 1345 140 L 1238 140 L 1130 140 L 1130 175 C 1130 209 1131 210 1170 210 L 1210 210 L 1210 280 L 1210 350 L 1257 374 L 1305 398 L 1257 421 L 1210 444 L 1210 517 L 1210 590 L 1170 590 C 1131 590 1130 591 1130 625 L 1130 660 L 1238 660 L 1345 660 L 1342 572 z M 593 561 L 750 512 L 908 561 C 994 588 1068 610 1073 610 C 1077 610 1080 525 1080 420 L 1080 230 L 990 230 L 900 230 L 900 265 C 900 293 904 300 920 300 C 938 300 940 307 940 388 L 940 477 L 880 461 L 820 445 L 820 338 L 820 230 L 750 230 L 680 230 L 680 338 L 680 445 L 633 457 C 606 463 578 471 570 474 C 557 479 555 467 558 390 C 561 309 563 300 581 300 C 596 300 600 293 600 265 L 600 230 L 510 230 L 420 230 L 420 420 C 420 525 423 610 428 610 C 432 610 506 588 593 561 z M 380 399 L 380 239 L 353 242 C 327 245 324 249 319 298 C 315 327 304 360 295 370 C 279 388 279 391 299 433 C 310 457 320 492 320 511 C 320 553 325 560 357 560 L 380 560 L 380 399 z M 1168 548 C 1175 541 1180 517 1180 494 C 1180 467 1187 443 1201 426 L 1221 400 L 1201 371 C 1188 354 1180 326 1180 303 C 1180 261 1166 240 1138 240 C 1121 240 1120 252 1120 393 C 1120 478 1123 550 1127 553 C 1137 564 1155 561 1168 548 z M 638 357 C 640 330 637 310 631 310 C 615 310 600 345 600 380 C 600 405 604 411 618 408 C 631 406 636 393 638 357 z M 900 379 C 900 345 885 310 870 310 C 859 310 856 393 867 403 C 883 420 900 408 900 379 z" stroke-linecap="round" />
</g>
</svg>